<svg width="800" height="600" viewBox="0 0 800 600" xmlns="http://www.w3.org/2000/svg">
  <rect x="100" y="100" width="600" height="400" rx="20" fill="#f0f2f5" />
  <circle cx="400" cy="300" r="150" fill="#1a73e8" opacity="0.2" />
  <path d="M400 200 Q450 150 500 200 Q550 250 500 300 Q450 350 400 300 Q350 250 400 200" fill="#1a73e8" opacity="0.6" />
  <path d="M300 200 Q350 150 400 200 Q450 250 400 300 Q350 350 300 300 Q250 250 300 200" fill="#1a73e8" opacity="0.4" />
  <g transform="translate(320, 220)">
    <path d="M0,0 L30,0 L30,80 L0,80 Z" fill="#333" />
    <path d="M40,0 L70,0 L70,60 L40,60 Z" fill="#333" />
    <path d="M80,0 L110,0 L110,80 L80,80 Z" fill="#333" />
    <path d="M120,30 L150,30 L150,80 L120,80 Z" fill="#333" />
    <path d="M160,10 L190,10 L190,80 L160,80 Z" fill="#333" />
  </g>
</svg>
